Mailpile-Old.ufo
<glyph name="ampersand" format="1">
  <advance width="1362"/>
  <unicode hex="0026"/>
  <outline>
    <contour>
      <point x="552" y="749" type="line"/>
      <point x="429" y="692"/>
      <point x="215" y="470"/>
      <point x="215" y="360" type="qcurve" smooth="yes"/>
      <point x="215" y="206"/>
      <point x="419.388555335" y="81.0"/>
      <point x="553.0" y="81.0" type="qcurve" smooth="yes"/>
      <point x="670.546365179" y="81.0"/>
      <point x="846.934887399" y="194.168609248"/>
      <point x="918.0" y="283.0" type="qcurve"/>
    </contour>
    <contour>
      <point x="671" y="954"/>
      <point x="801" y="1123"/>
      <point x="797" y="1231" type="qcurve" smooth="yes"/>
      <point x="789" y="1325"/>
      <point x="613.173819958" y="1424.76723057"/>
      <point x="526.0" y="1394.0" type="qcurve" smooth="yes"/>
      <point x="478.898505021" y="1377.37594295"/>
      <point x="406.0" y="1293.37252428"/>
      <point x="406.0" y="1226.0" type="qcurve" smooth="yes"/>
      <point x="406.0" y="1175.0"/>
      <point x="471" y="1052"/>
      <point x="510" y="1002" type="qcurve" smooth="yes"/>
      <point x="523" y="984"/>
      <point x="584" y="920"/>
      <point x="594" y="908" type="qcurve"/>
    </contour>
    <contour>
      <point x="986.0" y="397.0" type="line"/>
      <point x="1024.50442322" y="465.902652076"/>
      <point x="1049.12930996" y="598.086203625"/>
      <point x="1059.0" y="681.0" type="qcurve"/>
      <point x="1171.0" y="644.0" type="line"/>
      <point x="1157.02705449" y="536.208706035"/>
      <point x="1119.1047579" y="384.170716577"/>
      <point x="1065.0" y="296.0" type="qcurve"/>
      <point x="1299.0" y="0.0" type="line"/>
      <point x="1137.0" y="0.0" type="line"/>
      <point x="998.0" y="185.0" type="line"/>
      <point x="904.715557182" y="67.8982526325"/>
      <point x="688" y="-34"/>
      <point x="545" y="-34" type="qcurve" smooth="yes"/>
      <point x="356" y="-34"/>
      <point x="84" y="171"/>
      <point x="84" y="370" type="qcurve" smooth="yes"/>
      <point x="84" y="520"/>
      <point x="329" y="775"/>
      <point x="473" y="845" type="qcurve"/>
      <point x="414" y="916"/>
      <point x="286.0" y="1125.40873421"/>
      <point x="286.0" y="1224.0" type="qcurve" smooth="yes"/>
      <point x="286.0" y="1330.47119866"/>
      <point x="397.085862371" y="1475.02664694"/>
      <point x="484.0" y="1502.0" type="qcurve" smooth="yes"/>
      <point x="572.287942821" y="1532.44411821"/>
      <point x="764.902752806" y="1495.09724719"/>
      <point x="825.0" y="1435.0" type="qcurve" smooth="yes"/>
      <point x="865.0" y="1395.0"/>
      <point x="919.0" y="1287.0"/>
      <point x="919.0" y="1229.0" type="qcurve" smooth="yes"/>
      <point x="919.0" y="1059.88597815"/>
      <point x="783" y="885"/>
      <point x="674" y="815" type="qcurve"/>
    </contour>
  </outline>
</glyph>
<glyph name="quotesingle" format="1">
  <advance width="325"/>
  <unicode hex="0027"/>
  <outline>
    <contour>
      <point x="29" y="1084" type="move"/>
      <point x="187" y="1495" type="line"/>
      <point x="325" y="1495" type="line"/>
      <point x="165" y="1084" type="line"/>
    </contour>
  </outline>
</glyph>
<glyph name="semicolon" format="1">
  <advance width="537"/>
  <unicode hex="003B"/>
  <outline>
    <contour>
      <point x="248" y="207" type="line"/>
      <point x="268" y="209" type="line"/>
      <point x="276.5" y="209.0" name="inserted"/>
      <point x="291.0" y="207.0"/>
      <point x="297" y="205" type="qcurve" smooth="yes"/>
      <point x="317" y="199" type="line"/>
      <point x="319.5" y="197.0" name="inserted"/>
      <point x="323.0" y="195.0"/>
      <point x="324" y="195" type="qcurve"/>
      <point x="334" y="188" type="line"/>
      <point x="350" y="170" type="line"/>
      <point x="371" y="143"/>
      <point x="371" y="117"/>
      <point x="373" y="111" type="qcurve"/>
      <point x="373" y="88" type="line"/>
      <point x="370.0" y="55.5" name="inserted"/>
      <point x="354.5" y="-12.0"/>
      <point x="342" y="-47" type="qcurve"/>
      <point x="326" y="-80" type="line"/>
      <point x="318.5" y="-93.0" name="inserted"/>
      <point x="303.0" y="-118.5"/>
      <point x="295" y="-131" type="qcurve"/>
      <point x="231" y="-209" type="line"/>
      <point x="206.5" y="-233.5" name="inserted"/>
      <point x="167.0" y="-269.5"/>
      <point x="152" y="-281" type="qcurve"/>
      <point x="100" y="-223" type="line"/>
      <point x="125" y="-199" type="line"/>
      <point x="147" y="-168"/>
      <point x="190" y="-86"/>
      <point x="190" y="-45" type="qcurve" smooth="yes"/>
      <point x="190" y="-31" type="line"/>
      <point x="186" y="-10"/>
      <point x="162" y="49"/>
      <point x="162" y="90" type="qcurve" smooth="yes"/>
      <point x="162" y="102" type="line" smooth="yes"/>
      <point x="162" y="125"/>
      <point x="170" y="152"/>
      <point x="177.0" y="161.0" type="qcurve" smooth="yes" name="inserted"/>
      <point x="184" y="170"/>
      <point x="205" y="186"/>
      <point x="217" y="199" type="qcurve"/>
      <point x="219.0" y="199.0" name="inserted"/>
      <point x="221.0" y="200.0"/>
      <point x="221" y="201" type="qcurve"/>
      <point x="233" y="205" type="line"/>
      <point x="237.5" y="205.0" name="inserted"/>
      <point x="243.0" y="206.0"/>
      <point x="244" y="207" type="qcurve"/>
    </contour>
    <contour>
      <point x="266" y="885" type="qcurve" smooth="yes"/>
      <point x="221" y="885"/>
      <point x="156" y="950"/>
      <point x="156" y="995" type="qcurve" smooth="yes"/>
      <point x="156" y="1042"/>
      <point x="223" y="1110"/>
      <point x="268" y="1110" type="qcurve" smooth="yes"/>
      <point x="313" y="1110"/>
      <point x="381" y="1042"/>
      <point x="381" y="997" type="qcurve" smooth="yes"/>
      <point x="381" y="952"/>
      <point x="313" y="885"/>
    </contour>
  </outline>
</glyph>
<glyph name="B" format="1">
  <advance width="1243"/>
  <unicode hex="0042"/>
  <outline>
    <contour>
      <point x="100" y="1495" type="line"/>
      <point x="100" y="1365" type="line"/>
      <point x="236" y="1365" type="line"/>
      <point x="236" y="1365"/>
      <point x="236" y="0"/>
      <point x="236" y="0" type="qcurve"/>
      <point x="698" y="0" type="line" smooth="yes"/>
      <point x="930" y="0"/>
      <point x="1145" y="205" name="inserted"/>
      <point x="1145" y="410" type="qcurve" smooth="yes"/>
      <point x="1145" y="542"/>
      <point x="1002" y="754"/>
      <point x="883" y="773" type="qcurve"/>
      <point x="1001" y="821"/>
      <point x="1079" y="1029"/>
      <point x="1079" y="1121" type="qcurve" smooth="yes"/>
      <point x="1079" y="1301"/>
      <point x="849" y="1495"/>
      <point x="626" y="1495" type="qcurve" smooth="yes"/>
    </contour>
    <contour>
      <point x="382" y="824" type="line"/>
      <point x="382" y="1365" type="line"/>
      <point x="616" y="1365" type="line" smooth="yes"/>
      <point x="788" y="1365"/>
      <point x="936" y="1250"/>
      <point x="936" y="1121" type="qcurve" smooth="yes"/>
      <point x="936" y="979"/>
      <point x="797" y="824" name="inserted"/>
      <point x="657" y="824" type="qcurve" smooth="yes"/>
    </contour>
    <contour>
      <point x="382" y="694" type="line"/>
      <point x="657" y="694" type="line" smooth="yes"/>
      <point x="823" y="694"/>
      <point x="1002" y="551"/>
      <point x="1002" y="410" type="qcurve" smooth="yes"/>
      <point x="1002" y="262"/>
      <point x="865" y="130" name="inserted"/>
      <point x="694" y="130" type="qcurve" smooth="yes"/>
      <point x="382" y="130" type="line"/>
    </contour>
  </outline>
</glyph>
<glyph name="C" format="1">
  <advance width="1400"/>
  <unicode hex="0043"/>
  <note>
    ### RoboToDo ###
    
    ### TODO:
    Make Overshot &amp; Undershang match
    ###
    
    #####
  </note>
  <outline>
    <contour>
      <point x="1352" y="178" type="line"/>
      <point x="1289" y="120"/>
      <point x="1038" y="-36"/>
      <point x="791" y="-37" type="qcurve" smooth="yes"/>
      <point x="462" y="-38"/>
      <point x="40" y="425"/>
      <point x="40" y="752" type="qcurve" smooth="yes"/>
      <point x="40" y="1076"/>
      <point x="466" y="1517"/>
      <point x="782" y="1517" type="qcurve" smooth="yes"/>
      <point x="1015" y="1517"/>
      <point x="1322" y="1357"/>
      <point x="1368" y="1187" type="qcurve"/>
      <point x="1219" y="1149" type="line"/>
      <point x="1173" y="1281"/>
      <point x="929" y="1371"/>
      <point x="782" y="1371" type="qcurve" smooth="yes"/>
      <point x="533" y="1371"/>
      <point x="187" y="1023"/>
      <point x="187" y="752" type="qcurve" smooth="yes"/>
      <point x="187" y="484"/>
      <point x="535" y="109"/>
      <point x="791" y="109" type="qcurve" smooth="yes"/>
      <point x="989" y="109"/>
      <point x="1196" y="235"/>
      <point x="1258" y="289" type="qcurve"/>
    </contour>
  </outline>
</glyph>
<glyph name="F" format="1">
  <advance width="1156"/>
  <unicode hex="0046"/>
  <outline>
    <contour>
      <point x="400" y="0" type="qcurve"/>
      <point x="254" y="0" type="line"/>
      <point x="254" y="0"/>
      <point x="254" y="1365"/>
      <point x="254" y="1365" type="qcurve"/>
      <point x="118" y="1365" type="line"/>
      <point x="118" y="1495" type="line"/>
      <point x="990" y="1495" type="line" smooth="yes"/>
      <point x="1022" y="1495" name="inserted"/>
      <point x="1053" y="1464"/>
      <point x="1053" y="1432" type="qcurve" smooth="yes"/>
      <point x="1053" y="1235" type="line"/>
      <point x="915" y="1235" type="line"/>
      <point x="915" y="1365" type="line"/>
      <point x="400" y="1365" type="line"/>
      <point x="400" y="824" type="line"/>
      <point x="947" y="824" type="line"/>
      <point x="947" y="694" type="line"/>
      <point x="400" y="694" type="line"/>
      <point x="400" y="694"/>
      <point x="400" y="0"/>
    </contour>
  </outline>
</glyph>
<glyph name="G" format="1">
  <advance width="1426"/>
  <unicode hex="0047"/>
  <note>
    ### RoboToDo ###
    
    ### TODO:
    Make Overshot &amp; Undershang match
    ###
    
    #####
  </note>
  <outline>
    <contour>
      <point x="780" y="1531" type="move"/>
    </contour>
    <contour>
      <point x="780" y="1531" type="qcurve" smooth="yes"/>
      <point x="910" y="1531"/>
      <point x="1127" y="1467"/>
      <point x="1195" y="1422" type="qcurve" smooth="yes"/>
      <point x="1249" y="1388"/>
      <point x="1327" y="1330"/>
      <point x="1327" y="1330" type="qcurve"/>
      <point x="1235" y="1214" type="line"/>
      <point x="1235" y="1214"/>
      <point x="1178" y="1261"/>
      <point x="1120" y="1295" type="qcurve" smooth="yes"/>
      <point x="1060" y="1333"/>
      <point x="876" y="1385"/>
      <point x="780" y="1385" type="qcurve" smooth="yes"/>
      <point x="530.700173548" y="1385.0"/>
      <point x="176" y="1027"/>
      <point x="176" y="758" type="qcurve" smooth="yes"/>
      <point x="176" y="484"/>
      <point x="540.0" y="124.0"/>
      <point x="790" y="124" type="qcurve" smooth="yes"/>
      <point x="960.323318018" y="124.0"/>
      <point x="1235" y="298"/>
      <point x="1253" y="346" type="qcurve" smooth="yes"/>
      <point x="1254" y="348"/>
      <point x="1255" y="359"/>
      <point x="1255" y="366" type="qcurve" smooth="yes"/>
      <point x="1255" y="373"/>
      <point x="1255" y="381"/>
      <point x="1255" y="381" type="qcurve"/>
      <point x="1255" y="584" type="line" smooth="yes"/>
      <point x="1255" y="607"/>
      <point x="1231" y="631"/>
      <point x="1208" y="631" type="qcurve" smooth="yes"/>
      <point x="1002" y="631" type="line"/>
      <point x="1002" y="764" type="line"/>
      <point x="1265" y="764" type="line" smooth="yes"/>
      <point x="1336" y="764"/>
      <point x="1396" y="701"/>
      <point x="1396" y="634" type="qcurve" smooth="yes"/>
      <point x="1396" y="345" type="line" smooth="yes"/>
      <point x="1396" y="237"/>
      <point x="1016.8300281" y="-22.0"/>
      <point x="788" y="-22" type="qcurve" smooth="yes"/>
      <point x="485.357034188" y="-22.0"/>
      <point x="30" y="420"/>
      <point x="30" y="758" type="qcurve" smooth="yes"/>
      <point x="30" y="1077"/>
      <point x="465.27207333" y="1531.0"/>
    </contour>
  </outline>
</glyph>
<glyph name="J" format="1">
  <advance width="1090"/>
  <unicode hex="004A"/>
  <note>
    ### RoboToDo ###
    
    ### TODO:
    Make Undershang match
    ###
    
    #####
  </note>
  <outline>
    <contour>
      <point x="1002" y="1432" type="qcurve" smooth="yes"/>
      <point x="1002" y="447" type="line" smooth="yes"/>
      <point x="1002" y="224" name="inserted"/>
      <point x="761" y="0"/>
      <point x="559" y="0" type="qcurve" smooth="yes"/>
      <point x="360" y="0" name="inserted"/>
      <point x="77" y="224"/>
      <point x="77" y="447" type="qcurve" smooth="yes"/>
      <point x="77" y="508" type="line"/>
      <point x="224" y="508" type="line"/>
      <point x="224" y="453" type="line" smooth="yes"/>
      <point x="224" y="289" name="inserted"/>
      <point x="432" y="130"/>
      <point x="557" y="130" type="qcurve" smooth="yes"/>
      <point x="679" y="130" name="inserted"/>
      <point x="856" y="261"/>
      <point x="856" y="453" type="qcurve" smooth="yes"/>
      <point x="856" y="1365" type="line"/>
      <point x="473" y="1365" type="line"/>
      <point x="473" y="1495" type="line"/>
      <point x="934" y="1495" type="line" smooth="yes"/>
      <point x="968" y="1495" name="inserted"/>
      <point x="1002" y="1464"/>
    </contour>
  </outline>
</glyph>
<glyph name="M" format="1">
  <advance width="1971"/>
  <unicode hex="004D"/>
  <outline>
    <contour>
      <point x="1839" y="0" type="line"/>
      <point x="1632" y="0" type="line" smooth="yes"/>
      <point x="1602" y="0" name="inserted"/>
      <point x="1569.0" y="29.5"/>
      <point x="1567" y="59" type="qcurve" smooth="yes"/>
      <point x="1489" y="1272" type="line"/>
      <point x="1075" y="211" type="line"/>
      <point x="922" y="211" type="line"/>
      <point x="530" y="1272" type="line"/>
      <point x="455" y="59" type="line" smooth="yes"/>
      <point x="453" y="30" name="inserted"/>
      <point x="420" y="0"/>
      <point x="389" y="0" type="qcurve" smooth="yes"/>
      <point x="182" y="0" type="line"/>
      <point x="182" y="130" type="line"/>
      <point x="318" y="130" type="line"/>
      <point x="318" y="130"/>
      <point x="392" y="1495"/>
      <point x="392" y="1495" type="qcurve"/>
      <point x="555" y="1495" type="line" smooth="yes"/>
      <point x="581" y="1495" name="inserted"/>
      <point x="617.5" y="1469.5"/>
      <point x="627" y="1444" type="qcurve" smooth="yes"/>
      <point x="997" y="408" type="line"/>
      <point x="1393" y="1444" type="line" smooth="yes"/>
      <point x="1402.0" y="1469.5" name="inserted"/>
      <point x="1438" y="1495"/>
      <point x="1464" y="1495" type="qcurve"/>
      <point x="1618" y="1495" type="line"/>
      <point x="1703" y="130" type="line"/>
      <point x="1839" y="130" type="line"/>
    </contour>
  </outline>
</glyph>
<glyph name="R" format="1">
  <advance width="1391"/>
  <unicode hex="0052"/>
  <outline>
    <contour>
      <point x="382" y="764" type="line"/>
      <point x="678" y="764" type="line" smooth="yes"/>
      <point x="838" y="764"/>
      <point x="1011" y="928"/>
      <point x="1011" y="1084" type="qcurve" smooth="yes"/>
      <point x="1011" y="1243"/>
      <point x="838" y="1365"/>
      <point x="678" y="1365" type="qcurve" smooth="yes"/>
      <point x="382" y="1365" type="line"/>
    </contour>
    <contour>
      <point x="382" y="634" type="line"/>
      <point x="382" y="0" type="line"/>
      <point x="236" y="0" type="line"/>
      <point x="236" y="1365" type="line"/>
      <point x="100" y="1365" type="line"/>
      <point x="100" y="1495" type="line"/>
      <point x="678" y="1495" type="line" smooth="yes"/>
      <point x="913" y="1495"/>
      <point x="1157" y="1299"/>
      <point x="1157" y="1084" type="qcurve" smooth="yes"/>
      <point x="1157" y="921" name="inserted"/>
      <point x="972" y="714"/>
      <point x="857" y="676" type="qcurve"/>
      <point x="907" y="653" name="inserted"/>
      <point x="986" y="543"/>
      <point x="1008" y="489" type="qcurve" smooth="yes"/>
      <point x="1156" y="130" type="line"/>
      <point x="1321" y="130" type="line"/>
      <point x="1321" y="0" type="line"/>
      <point x="1114" y="0" type="line" smooth="yes"/>
      <point x="1087" y="0" name="inserted"/>
      <point x="1050" y="24"/>
      <point x="1040" y="47" type="qcurve" smooth="yes"/>
      <point x="862" y="467" type="line" smooth="yes"/>
      <point x="822" y="560"/>
      <point x="719" y="634"/>
      <point x="602" y="634" type="qcurve" smooth="yes"/>
    </contour>
  </outline>
</glyph>
<glyph name="S" format="1">
  <advance width="1185"/>
  <unicode hex="0053"/>
  <note>
    ### RoboToDo ###
    
    ### TODO:
    Make Overshot &amp; Underhang match
    ###
    
    #####
  </note>
  <outline>
    <contour>
      <point x="936" y="1164" type="line"/>
      <point x="935" y="1206"/>
      <point x="921" y="1297"/>
      <point x="878" y="1329" type="qcurve"/>
      <point x="785" y="1373"/>
      <point x="658.439789939" y="1393.0"/>
      <point x="589" y="1393" type="qcurve" smooth="yes"/>
      <point x="448.107225752" y="1393.0"/>
      <point x="284" y="1265"/>
      <point x="284" y="1152" type="qcurve" smooth="yes"/>
      <point x="284" y="1040"/>
      <point x="445" y="903"/>
      <point x="550" y="857" type="qcurve" smooth="yes"/>
      <point x="616" y="828"/>
      <point x="765" y="764"/>
      <point x="835" y="727" type="qcurve" smooth="yes"/>
      <point x="933" y="675"/>
      <point x="1097.0" y="513.784644719"/>
      <point x="1097" y="368" type="qcurve" smooth="yes"/>
      <point x="1097.0" y="275.046327152"/>
      <point x="990" y="128"/>
      <point x="929" y="77" type="qcurve" smooth="yes"/>
      <point x="866" y="26"/>
      <point x="658.956935794" y="-28.0"/>
      <point x="562" y="-28" type="qcurve" smooth="yes"/>
      <point x="460" y="-28"/>
      <point x="305" y="33"/>
      <point x="243" y="86" type="qcurve" smooth="yes"/>
      <point x="180" y="140"/>
      <point x="100" y="259"/>
      <point x="68" y="332" type="qcurve"/>
      <point x="206" y="410" type="line"/>
      <point x="230" y="346"/>
      <point x="303" y="244"/>
      <point x="346" y="203" type="qcurve" smooth="yes"/>
      <point x="388" y="163"/>
      <point x="496" y="117"/>
      <point x="562" y="117" type="qcurve" smooth="yes"/>
      <point x="635" y="117"/>
      <point x="773" y="154"/>
      <point x="820" y="183" type="qcurve" smooth="yes"/>
      <point x="866" y="211"/>
      <point x="953" y="300"/>
      <point x="953" y="364" type="qcurve" smooth="yes"/>
      <point x="953" y="457"/>
      <point x="793" y="577"/>
      <point x="712" y="621" type="qcurve" smooth="yes"/>
      <point x="670" y="643"/>
      <point x="575" y="685"/>
      <point x="526" y="704" type="qcurve" smooth="yes"/>
      <point x="376.807177589" y="764.895029555"/>
      <point x="132.0" y="963.49199705"/>
      <point x="132" y="1156" type="qcurve" smooth="yes"/>
      <point x="132.0" y="1322.91478416"/>
      <point x="376.413177288" y="1525.0"/>
      <point x="587" y="1525" type="qcurve" smooth="yes"/>
      <point x="672.957989788" y="1525.0"/>
      <point x="908" y="1483"/>
      <point x="1009" y="1408" type="qcurve"/>
      <point x="1066" y="1357"/>
      <point x="1068" y="1164"/>
      <point x="1068" y="1164" type="qcurve"/>
    </contour>
  </outline>
</glyph>
<glyph name="T" format="1">
  <advance width="1123"/>
  <unicode hex="0054"/>
  <outline>
    <contour>
      <point x="102" y="1495" type="qcurve" smooth="yes"/>
      <point x="1020" y="1495" type="line" smooth="yes"/>
      <point x="1052" y="1495" name="inserted"/>
      <point x="1084" y="1464"/>
      <point x="1084" y="1432" type="qcurve" smooth="yes"/>
      <point x="1084" y="1235" type="line"/>
      <point x="948" y="1235" type="line"/>
      <point x="948" y="1365" type="line"/>
      <point x="634" y="1365" type="line"/>
      <point x="634" y="1365"/>
      <point x="634" y="0"/>
      <point x="634" y="0" type="qcurve"/>
      <point x="488" y="0" type="line"/>
      <point x="488" y="1365" type="line"/>
      <point x="175" y="1365" type="line"/>
      <point x="175" y="1235" type="line"/>
      <point x="39" y="1235" type="line"/>
      <point x="39" y="1432" type="line" smooth="yes"/>
      <point x="39" y="1464" name="inserted"/>
      <point x="71" y="1495"/>
    </contour>
  </outline>
</glyph>
<glyph name="X" format="1">
  <advance width="1367"/>
  <unicode hex="0058"/>
  <outline>
    <contour>
      <point x="1124" y="1495" type="qcurve" smooth="yes"/>
      <point x="1287" y="1495" type="line"/>
      <point x="1287" y="1365" type="line"/>
      <point x="1148" y="1365" type="line"/>
      <point x="791" y="776" type="line"/>
      <point x="791" y="776"/>
      <point x="1264" y="0"/>
      <point x="1264" y="0" type="qcurve"/>
      <point x="1101" y="0" type="line"/>
      <point x="689" y="684" type="line"/>
      <point x="270" y="0" type="line" smooth="yes"/>
      <point x="107" y="0" type="line"/>
      <point x="107" y="0"/>
      <point x="580" y="776"/>
      <point x="580" y="776" type="qcurve"/>
      <point x="216" y="1365" type="line"/>
      <point x="80" y="1365" type="line"/>
      <point x="80" y="1495" type="line"/>
      <point x="243" y="1495" type="line" smooth="yes"/>
      <point x="267" y="1495" name="inserted"/>
      <point x="305" y="1473"/>
      <point x="319" y="1452" type="qcurve" smooth="yes"/>
      <point x="691" y="872" type="line"/>
      <point x="1050" y="1452" type="line" smooth="yes"/>
      <point x="1063" y="1474" name="inserted"/>
      <point x="1101" y="1495"/>
    </contour>
  </outline>
</glyph>
<glyph name="Z" format="1">
  <advance width="1097"/>
  <unicode hex="005A"/>
  <outline>
    <contour>
      <point x="1047" y="260" type="line"/>
      <point x="1047" y="63" type="line" smooth="yes"/>
      <point x="1047" y="32" name="inserted"/>
      <point x="1016" y="0"/>
      <point x="984" y="0" type="qcurve" smooth="yes"/>
      <point x="80" y="0" type="line"/>
      <point x="80" y="109" type="line"/>
      <point x="860" y="1365" type="line"/>
      <point x="227" y="1365" type="line"/>
      <point x="227" y="1235" type="line"/>
      <point x="91" y="1235" type="line"/>
      <point x="91" y="1432" type="line" smooth="yes"/>
      <point x="91" y="1464" name="inserted"/>
      <point x="123" y="1495"/>
      <point x="154" y="1495" type="qcurve" smooth="yes"/>
      <point x="1024" y="1495" type="line"/>
      <point x="1024" y="1379" type="line"/>
      <point x="255" y="130" type="line"/>
      <point x="911" y="130" type="line"/>
      <point x="911" y="260" type="line"/>
    </contour>
  </outline>
</glyph>
<glyph name="a" format="1">
  <advance width="1192"/>
  <unicode hex="0061"/>
  <note>
    ### RoboToDo ###
    
    ### TODO:
    Make Overshot &amp; Underhang match
    ###
    
    #####
  </note>
  <outline>
    <contour>
      <point x="1075" y="124" type="line" smooth="yes"/>
      <point x="1035" y="124"/>
      <point x="982" y="160"/>
      <point x="982" y="210" type="qcurve" smooth="yes"/>
      <point x="982" y="746" type="line" smooth="yes"/>
      <point x="982" y="955"/>
      <point x="789" y="1115"/>
      <point x="580" y="1115" type="qcurve" smooth="yes"/>
      <point x="330" y="1115"/>
      <point x="159.0" y="985.523073169"/>
      <point x="159" y="922" type="qcurve" smooth="yes"/>
      <point x="159" y="829" type="line"/>
      <point x="297" y="829" type="line"/>
      <point x="297" y="880" type="line" smooth="yes"/>
      <point x="297.0" y="939.632339051"/>
      <point x="393" y="996"/>
      <point x="580" y="996" type="qcurve" smooth="yes"/>
      <point x="794" y="996"/>
      <point x="844" y="804"/>
      <point x="844" y="695" type="qcurve"/>
      <point x="701" y="695" type="line" smooth="yes"/>
      <point x="370" y="695"/>
      <point x="66" y="532"/>
      <point x="66" y="331" type="qcurve" smooth="yes"/>
      <point x="66" y="120"/>
      <point x="296.119936897" y="-43.0522809764"/>
      <point x="499" y="-31" type="qcurve" smooth="yes"/>
      <point x="632" y="-24"/>
      <point x="773" y="55"/>
      <point x="807" y="98" type="qcurve" smooth="yes"/>
      <point x="836" y="134"/>
      <point x="853" y="171"/>
      <point x="864" y="194" type="qcurve"/>
      <point x="863" y="136"/>
      <point x="912" y="0"/>
      <point x="1024" y="0" type="qcurve" smooth="yes"/>
      <point x="1163" y="0" type="line"/>
      <point x="1163" y="124" type="line"/>
    </contour>
    <contour>
      <point x="844" y="489" type="line" smooth="yes"/>
      <point x="844" y="437"/>
      <point x="799" y="304"/>
      <point x="753" y="232" type="qcurve" smooth="yes"/>
      <point x="707" y="160"/>
      <point x="577" y="93"/>
      <point x="495" y="91" type="qcurve" smooth="yes"/>
      <point x="408" y="91"/>
      <point x="291" y="117"/>
      <point x="261" y="143" type="qcurve" smooth="yes"/>
      <point x="231" y="170"/>
      <point x="203" y="264"/>
      <point x="204" y="332" type="qcurve"/>
      <point x="198" y="470"/>
      <point x="480" y="567"/>
      <point x="703" y="567" type="qcurve" smooth="yes"/>
      <point x="844" y="567" type="line"/>
    </contour>
  </outline>
</glyph>
<glyph name="b" format="1">
  <advance width="1279"/>
  <unicode hex="0062"/>
  <note>
    ### RoboToDo ###
    
    ### TODO:
    Make Overshot &amp; Underhang match
    ###
    
    #####
  </note>
  <outline>
    <contour>
      <point x="306" y="945" type="line"/>
      <point x="375" y="1025"/>
      <point x="576" y="1111"/>
      <point x="682" y="1111" type="qcurve" smooth="yes"/>
      <point x="914" y="1111"/>
      <point x="1199" y="817"/>
      <point x="1199" y="539" type="qcurve" smooth="yes"/>
      <point x="1199" y="283"/>
      <point x="923" y="-6"/>
      <point x="687" y="-6" type="qcurve" smooth="yes"/>
      <point x="562" y="-6"/>
      <point x="377" y="59"/>
      <point x="306" y="147" type="qcurve"/>
      <point x="306" y="0" type="line"/>
      <point x="168" y="0" type="line"/>
      <point x="168" y="1371" type="line"/>
      <point x="38" y="1371" type="line"/>
      <point x="38" y="1495" type="line"/>
      <point x="254" y="1495" type="line" smooth="yes"/>
      <point x="297" y="1495"/>
      <point x="306" y="1451"/>
      <point x="306" y="1421" type="qcurve" smooth="yes"/>
    </contour>
    <contour>
      <point x="306" y="449" type="line" smooth="yes"/>
      <point x="306" y="291"/>
      <point x="550" y="118"/>
      <point x="686" y="118" type="qcurve" smooth="yes"/>
      <point x="856" y="118"/>
      <point x="1050" y="314"/>
      <point x="1061" y="536" type="qcurve"/>
      <point x="1061" y="765"/>
      <point x="870" y="987"/>
      <point x="681" y="987" type="qcurve"/>
      <point x="555" y="987"/>
      <point x="306" y="784"/>
      <point x="306" y="606" type="qcurve"/>
    </contour>
  </outline>
</glyph>
<glyph name="h" format="1">
  <advance width="1287"/>
  <unicode hex="0068"/>
  <note>
    ### RoboToDo ###
    
    ### DONE:
    Make Overshot match
    ###
    
    ### TODO:
    Fix Curvature of bottom serif and replicate to all over lowercase similar serifs
    ###
    
    #####
  </note>
  <outline>
    <contour>
      <point x="929" y="206" type="qcurve" smooth="yes"/>
      <point x="929" y="753" type="line" smooth="yes"/>
      <point x="929" y="886"/>
      <point x="810" y="975"/>
      <point x="698" y="975" type="qcurve" smooth="yes"/>
      <point x="602" y="975" name="inserted"/>
      <point x="426" y="850"/>
      <point x="333" y="767" type="qcurve"/>
      <point x="333" y="767"/>
      <point x="333" y="0"/>
      <point x="333" y="0" type="qcurve"/>
      <point x="195" y="0" type="line"/>
      <point x="195" y="1371" type="line"/>
      <point x="65" y="1371" type="line"/>
      <point x="65" y="1495" type="line"/>
      <point x="245" y="1495" type="line" smooth="yes"/>
      <point x="277" y="1495" name="inserted"/>
      <point x="333" y="1465"/>
      <point x="333" y="1434" type="qcurve" smooth="yes"/>
      <point x="333" y="938" type="line"/>
      <point x="421" y="1023" name="inserted"/>
      <point x="575" y="1104"/>
      <point x="692" y="1104" type="qcurve" smooth="yes"/>
      <point x="885" y="1104"/>
      <point x="1067" y="945"/>
      <point x="1067" y="749" type="qcurve" smooth="yes"/>
      <point x="1067" y="216" type="line" smooth="yes"/>
      <point x="1067" y="159" name="inserted"/>
      <point x="1108" y="124"/>
      <point x="1152" y="124" type="qcurve"/>
      <point x="1222" y="124" type="line"/>
      <point x="1222" y="0" type="line"/>
      <point x="1093" y="0" type="line"/>
      <point x="1010" y="0" name="inserted"/>
      <point x="929" y="94"/>
    </contour>
  </outline>
</glyph>
<glyph name="i" format="1">
  <advance width="595"/>
  <unicode hex="0069"/>
  <note>
    ### RoboToDo ###
    
    ### TODO:
    Make Underhang -10, -6, or -4 and hieght of serif match "l, i, j, t"
    ###
    
    #####
  </note>
  <outline>
    <contour>
      <point x="282" y="1286" type="qcurve" smooth="yes"/>
      <point x="244" y="1286"/>
      <point x="184" y="1343"/>
      <point x="184" y="1381" type="qcurve" smooth="yes"/>
      <point x="184" y="1421"/>
      <point x="244" y="1480"/>
      <point x="282" y="1480" type="qcurve" smooth="yes"/>
      <point x="322" y="1480"/>
      <point x="378" y="1421"/>
      <point x="378" y="1381" type="qcurve" smooth="yes"/>
      <point x="378" y="1343"/>
      <point x="322" y="1286"/>
    </contour>
    <contour>
      <point x="387" y="0" type="line"/>
      <point x="304" y="0" name="inserted"/>
      <point x="223" y="94"/>
      <point x="223" y="206" type="qcurve"/>
      <point x="223.0" y="206.0"/>
      <point x="223.0" y="960.0"/>
      <point x="223" y="960" type="qcurve"/>
      <point x="93" y="960" type="line"/>
      <point x="93" y="1084" type="line"/>
      <point x="296" y="1084" type="line" smooth="yes"/>
      <point x="327" y="1084" name="inserted"/>
      <point x="361" y="1050"/>
      <point x="361" y="1018" type="qcurve"/>
      <point x="361" y="216" type="line"/>
      <point x="361" y="159" name="inserted"/>
      <point x="402" y="124"/>
      <point x="446" y="124" type="qcurve"/>
      <point x="516" y="124" type="line"/>
      <point x="516" y="0" type="line"/>
    </contour>
  </outline>
</glyph>
<glyph name="x" format="1">
  <advance width="1101"/>
  <unicode hex="0078"/>
  <outline>
    <contour>
      <point x="635" y="551" type="line"/>
      <point x="953" y="960" type="line"/>
      <point x="1058" y="960" type="line"/>
      <point x="1058" y="1084" type="line"/>
      <point x="922" y="1084" type="line" smooth="yes"/>
      <point x="896" y="1084"/>
      <point x="858" y="1061"/>
      <point x="842" y="1041" type="qcurve" smooth="yes"/>
      <point x="557" y="667" type="line"/>
      <point x="557" y="667"/>
      <point x="254" y="1041"/>
      <point x="254" y="1041" type="qcurve" smooth="yes"/>
      <point x="239" y="1064"/>
      <point x="197" y="1084"/>
      <point x="174" y="1084" type="qcurve"/>
      <point x="39" y="1084" type="line"/>
      <point x="39" y="960" type="line"/>
      <point x="144" y="960" type="line"/>
      <point x="475" y="551" type="line"/>
      <point x="65" y="0" type="line"/>
      <point x="239" y="0" type="line"/>
      <point x="555" y="424" type="line"/>
      <point x="898" y="0" type="line"/>
      <point x="1062" y="0" type="line"/>
    </contour>
  </outline>
</glyph>
<glyph name="y" format="1">
  <advance width="1219"/>
  <unicode hex="0079"/>
  <outline>
    <contour>
      <point x="1022" y="1084" type="line" smooth="yes"/>
      <point x="992" y="1084"/>
      <point x="954" y="1057"/>
      <point x="946" y="1031" type="qcurve" smooth="yes"/>
      <point x="634" y="152" type="line"/>
      <point x="283" y="1031" type="line"/>
      <point x="275" y="1057"/>
      <point x="237" y="1084"/>
      <point x="207" y="1084" type="qcurve" smooth="yes"/>
      <point x="39" y="1084" type="line"/>
      <point x="39" y="960" type="line"/>
      <point x="150" y="960" type="line"/>
      <point x="563" y="0" type="line"/>
      <point x="497" y="-217" type="line" smooth="yes"/>
      <point x="488" y="-249"/>
      <point x="447" y="-312"/>
      <point x="426" y="-328" type="qcurve" smooth="yes"/>
      <point x="405" y="-344"/>
      <point x="348" y="-352"/>
      <point x="318" y="-352" type="qcurve" smooth="yes"/>
      <point x="282" y="-352"/>
      <point x="151" y="-297"/>
      <point x="113" y="-275" type="qcurve"/>
      <point x="68" y="-393" type="line"/>
      <point x="115" y="-422"/>
      <point x="276" y="-477"/>
      <point x="331" y="-477" type="qcurve" smooth="yes"/>
      <point x="387" y="-477"/>
      <point x="490" y="-448"/>
      <point x="526" y="-416" type="qcurve" smooth="yes"/>
      <point x="562" y="-384"/>
      <point x="613" y="-277"/>
      <point x="641" y="-198" type="qcurve" smooth="yes"/>
      <point x="1075" y="960" type="line"/>
      <point x="1180" y="960" type="line"/>
      <point x="1180" y="1084" type="line"/>
    </contour>
  </outline>
</glyph>
<glyph name="z" format="1">
  <advance width="1073"/>
  <unicode hex="007A"/>
  <outline>
    <contour>
      <point x="976" y="248" type="line"/>
      <point x="976" y="63" type="line" smooth="yes"/>
      <point x="976" y="32" name="inserted"/>
      <point x="946" y="0"/>
      <point x="915" y="0" type="qcurve" smooth="yes"/>
      <point x="77" y="0" type="line"/>
      <point x="77" y="100" type="line"/>
      <point x="773" y="964" type="line"/>
      <point x="245" y="964" type="line"/>
      <point x="245" y="840" type="line"/>
      <point x="109" y="840" type="line"/>
      <point x="109" y="1021" type="line" smooth="yes"/>
      <point x="109" y="1052" name="inserted"/>
      <point x="142" y="1084"/>
      <point x="173" y="1084" type="qcurve" smooth="yes"/>
      <point x="952" y="1084" type="line"/>
      <point x="952" y="982" type="line"/>
      <point x="261" y="124" type="line"/>
      <point x="840" y="124" type="line"/>
      <point x="840" y="248" type="line"/>
    </contour>
  </outline>
</glyph>
<glyph name="braceright" format="1">
  <advance width="677"/>
  <unicode hex="007D"/>
  <outline>
    <contour>
      <point x="321" y="292" type="qcurve"/>
      <point x="300" y="601" type="line"/>
      <point x="300" y="663"/>
      <point x="361" y="740"/>
      <point x="411" y="744" type="qcurve"/>
      <point x="411" y="749" type="line"/>
      <point x="361" y="753"/>
      <point x="300" y="830"/>
      <point x="300" y="892" type="qcurve"/>
      <point x="321" y="1201" type="line"/>
      <point x="321" y="1361" name="inserted"/>
      <point x="198" y="1499"/>
      <point x="60" y="1495" type="qcurve"/>
      <point x="60" y="1625" type="line"/>
      <point x="272" y="1625" name="inserted"/>
      <point x="445" y="1427"/>
      <point x="445" y="1219" type="qcurve"/>
      <point x="429" y="907" type="line"/>
      <point x="429" y="852"/>
      <point x="521" y="801"/>
      <point x="580" y="801" type="qcurve"/>
      <point x="580" y="694" type="line"/>
      <point x="521" y="694"/>
      <point x="429" y="643"/>
      <point x="429" y="588" type="qcurve"/>
      <point x="430" y="572" name="inserted"/>
      <point x="432" y="533"/>
      <point x="433" y="510" type="qcurve" smooth="yes"/>
      <point x="435" y="471"/>
      <point x="441" y="354"/>
      <point x="445" y="276" type="qcurve"/>
      <point x="445" y="69" name="inserted"/>
      <point x="272" y="-130"/>
      <point x="60" y="-130" type="qcurve"/>
      <point x="60" y="0" type="line"/>
      <point x="198" y="-4" name="inserted"/>
      <point x="321" y="132"/>
    </contour>
  </outline>
</glyph>
<glyph name="currency" format="1">
  <advance width="1278"/>
  <unicode hex="00A4"/>
  <outline>
    <contour>
      <point x="987" y="999" type="line"/>
      <point x="1028.0" y="943.0" name="inserted"/>
      <point x="1069.0" y="816.0"/>
      <point x="1069" y="745" type="qcurve" smooth="yes"/>
      <point x="1069.0" y="676.5" name="inserted"/>
      <point x="1027.0" y="551.0"/>
      <point x="985" y="494" type="qcurve"/>
      <point x="1221" y="260" type="line"/>
      <point x="1126" y="166" type="line"/>
      <point x="891" y="399" type="line"/>
      <point x="836.5" y="358.0" name="inserted"/>
      <point x="710.5" y="317.0"/>
      <point x="639" y="317" type="qcurve" smooth="yes"/>
      <point x="567.5" y="317.0" name="inserted"/>
      <point x="441.5" y="358.0"/>
      <point x="387" y="399" type="qcurve"/>
      <point x="152" y="166" type="line"/>
      <point x="57" y="260" type="line"/>
      <point x="291" y="494" type="line"/>
      <point x="250.0" y="550.0" name="inserted"/>
      <point x="209.0" y="677.0"/>
      <point x="209" y="748" type="qcurve" smooth="yes"/>
      <point x="209.0" y="819.5" name="inserted"/>
      <point x="250.0" y="945.0"/>
      <point x="291" y="999" type="qcurve"/>
      <point x="57" y="1235" type="line"/>
      <point x="152" y="1329" type="line"/>
      <point x="385" y="1094" type="line"/>
      <point x="440" y="1135"/>
      <point x="571" y="1178"/>
      <point x="639" y="1178" type="qcurve" smooth="yes"/>
      <point x="708.5" y="1178.0" name="inserted"/>
      <point x="835.5" y="1136.0"/>
      <point x="893" y="1094" type="qcurve"/>
      <point x="1126" y="1329" type="line"/>
      <point x="1221" y="1235" type="line"/>
    </contour>
    <contour>
      <point x="639" y="1038" type="qcurve" smooth="yes"/>
      <point x="580" y="1038"/>
      <point x="475" y="993"/>
      <point x="435.0" y="954.0" type="qcurve" smooth="yes" name="inserted"/>
      <point x="395" y="915"/>
      <point x="348" y="807"/>
      <point x="348" y="745" type="qcurve" smooth="yes"/>
      <point x="348" y="684"/>
      <point x="393" y="580"/>
      <point x="433.0" y="540.0" type="qcurve" smooth="yes" name="inserted"/>
      <point x="473" y="500"/>
      <point x="578" y="455"/>
      <point x="639" y="455" type="qcurve" smooth="yes"/>
      <point x="700" y="455"/>
      <point x="805" y="502"/>
      <point x="845.0" y="542.0" type="qcurve" smooth="yes" name="inserted"/>
      <point x="885" y="582"/>
      <point x="930" y="686"/>
      <point x="930" y="745" type="qcurve" smooth="yes"/>
      <point x="930" y="807"/>
      <point x="883" y="913"/>
      <point x="843.0" y="953.0" type="qcurve" smooth="yes" name="inserted"/>
      <point x="803" y="993"/>
      <point x="698" y="1038"/>
    </contour>
  </outline>
</glyph>
<glyph name="yen" format="1">
  <advance width="1122"/>
  <unicode hex="00A5"/>
  <outline>
    <contour>
      <point x="645" y="0" type="line"/>
      <point x="481" y="0" type="line"/>
      <point x="481" y="510" type="line"/>
      <point x="80" y="510" type="line"/>
      <point x="80" y="604" type="line"/>
      <point x="449" y="604" type="line"/>
      <point x="358" y="811" type="line"/>
      <point x="82" y="811" type="line"/>
      <point x="82" y="905" type="line"/>
      <point x="315" y="905" type="line"/>
      <point x="55" y="1495" type="line"/>
      <point x="238" y="1495" type="line"/>
      <point x="563" y="711" type="line"/>
      <point x="887" y="1495" type="line"/>
      <point x="1071" y="1495" type="line"/>
      <point x="809" y="905" type="line"/>
      <point x="1047" y="905" type="line"/>
      <point x="1047" y="811" type="line"/>
      <point x="768" y="811" type="line"/>
      <point x="676" y="604" type="line"/>
      <point x="1047" y="604" type="line"/>
      <point x="1047" y="510" type="line"/>
      <point x="645" y="510" type="line"/>
    </contour>
  </outline>
</glyph>
<glyph name="copyright" format="1">
  <advance width="1475"/>
  <unicode hex="00A9"/>
  <outline>
    <contour>
      <point x="747" y="1317" type="qcurve" smooth="yes"/>
      <point x="817" y="1317"/>
      <point x="982" y="1253"/>
      <point x="1000" y="1178" type="qcurve"/>
      <point x="936" y="1162" type="line"/>
      <point x="917" y="1215"/>
      <point x="805" y="1249"/>
      <point x="749" y="1249" type="qcurve" smooth="yes"/>
      <point x="640" y="1249"/>
      <point x="497" y="1101"/>
      <point x="497" y="983" type="qcurve" smooth="yes"/>
      <point x="497" y="866"/>
      <point x="640" y="706"/>
      <point x="752" y="706" type="qcurve" smooth="yes"/>
      <point x="853" y="706"/>
      <point x="950" y="788"/>
      <point x="950" y="788" type="qcurve"/>
      <point x="1005" y="744" type="line"/>
      <point x="1005" y="744"/>
      <point x="872" y="638"/>
      <point x="751" y="638" type="qcurve" smooth="yes"/>
      <point x="607" y="638"/>
      <point x="423" y="840"/>
      <point x="423" y="983" type="qcurve" smooth="yes"/>
      <point x="423" y="1124"/>
      <point x="609" y="1317"/>
    </contour>
    <contour>
      <point x="133.0" y="1240.23025478" name="inserted"/>
      <point x="446.136324096" y="1577.0"/>
      <point x="737" y="1577" type="qcurve" smooth="yes"/>
      <point x="1025.0" y="1577.0"/>
      <point x="1341.0" y="1239.0"/>
      <point x="1341" y="981" type="qcurve" smooth="yes"/>
      <point x="1341.0" y="722.221276551"/>
      <point x="1002.20194762" y="367.0"/>
      <point x="737" y="367" type="qcurve" smooth="yes"/>
      <point x="467.0" y="367.0"/>
      <point x="133.0" y="723.0"/>
      <point x="133" y="981" type="qcurve" smooth="yes"/>
    </contour>
    <contour>
      <point x="211.0" y="746.255347273" name="inserted"/>
      <point x="507.733524505" y="434.0"/>
      <point x="737" y="434" type="qcurve" smooth="yes"/>
      <point x="970.213674156" y="434.0"/>
      <point x="1264.0" y="748.221886128"/>
      <point x="1264" y="979" type="qcurve" smooth="yes"/>
      <point x="1264.0" y="1213.82578466"/>
      <point x="982.137951739" y="1510.0"/>
      <point x="737" y="1510" type="qcurve" smooth="yes"/>
      <point x="486.117751435" y="1510.0"/>
      <point x="211.0" y="1212.18000287"/>
      <point x="211" y="979" type="qcurve" smooth="yes"/>
    </contour>
  </outline>
</glyph>
<glyph name="ordfeminine" format="1">
  <advance width="838"/>
  <unicode hex="00AA"/>
  <outline>
    <contour>
      <point x="80" y="926" type="qcurve" smooth="yes"/>
      <point x="80" y="1059"/>
      <point x="295" y="1188"/>
      <point x="535" y="1188" type="qcurve"/>
      <point x="535" y="1237" type="line" smooth="yes"/>
      <point x="535" y="1337"/>
      <point x="461" y="1417"/>
      <point x="381" y="1417" type="qcurve" smooth="yes"/>
      <point x="338" y="1417"/>
      <point x="231" y="1386"/>
      <point x="172" y="1352" type="qcurve"/>
      <point x="129" y="1450" type="line"/>
      <point x="199.5" y="1484.0" name="inserted"/>
      <point x="334.5" y="1518.0"/>
      <point x="399" y="1518" type="qcurve" smooth="yes"/>
      <point x="528" y="1518"/>
      <point x="668" y="1395"/>
      <point x="668" y="1245" type="qcurve" smooth="yes"/>
      <point x="668" y="899" type="line" smooth="yes"/>
      <point x="668.0" y="866.5" name="inserted"/>
      <point x="694.5" y="834.0"/>
      <point x="721" y="834" type="qcurve" smooth="yes"/>
      <point x="736.5" y="834.0" name="inserted"/>
      <point x="763.0" y="837.0"/>
      <point x="774" y="840" type="qcurve"/>
      <point x="791" y="737" type="line"/>
      <point x="760.0" y="728.0" name="inserted"/>
      <point x="702.5" y="719.0"/>
      <point x="676" y="719" type="qcurve" smooth="yes"/>
      <point x="616" y="719"/>
      <point x="539" y="786"/>
      <point x="537" y="874" type="qcurve"/>
      <point x="496.0" y="796.5" name="inserted"/>
      <point x="365.5" y="719.0"/>
      <point x="276" y="719" type="qcurve" smooth="yes"/>
      <point x="188" y="719"/>
      <point x="80" y="827"/>
    </contour>
    <contour>
      <point x="535" y="1104" type="qcurve"/>
      <point x="370.0" y="1104.0" name="inserted"/>
      <point x="205.0" y="1021.0"/>
      <point x="205" y="938" type="qcurve" smooth="yes"/>
      <point x="205.0" y="879.5" name="inserted"/>
      <point x="262.0" y="821.0"/>
      <point x="319" y="821" type="qcurve" smooth="yes"/>
      <point x="414" y="821"/>
      <point x="535" y="975"/>
    </contour>
  </outline>
</glyph>
<glyph name="plusminus" format="1">
  <advance width="1196"/>
  <unicode hex="00B1"/>
  <outline>
    <contour>
      <point x="664" y="813" type="line"/>
      <point x="999" y="813" type="line"/>
      <point x="999" y="682" type="line"/>
      <point x="664" y="682" type="line"/>
      <point x="664" y="342" type="line"/>
      <point x="530" y="342" type="line"/>
      <point x="530" y="682" type="line"/>
      <point x="195" y="682" type="line"/>
      <point x="195" y="813" type="line"/>
      <point x="530" y="813" type="line"/>
      <point x="530" y="1151" type="line"/>
      <point x="664" y="1151" type="line"/>
    </contour>
    <contour>
      <point x="1001" y="0" type="line"/>
      <point x="195" y="0" type="line"/>
      <point x="195" y="131" type="line"/>
      <point x="1001" y="131" type="line"/>
    </contour>
  </outline>
</glyph>
<glyph name="uni00B5" format="1">
  <advance width="1440"/>
  <unicode hex="00B5"/>
  <outline>
    <contour>
      <point x="1159" y="1108" type="qcurve" smooth="yes"/>
      <point x="1159" y="221" type="line" smooth="yes"/>
      <point x="1159" y="165" name="inserted"/>
      <point x="1203" y="111"/>
      <point x="1247" y="111" type="qcurve"/>
      <point x="1353" y="111" type="line"/>
      <point x="1354" y="-37" type="line"/>
      <point x="1194" y="-38" type="line"/>
      <point x="1112" y="-38" name="inserted"/>
      <point x="1016" y="50"/>
      <point x="1001" y="129" type="qcurve"/>
      <point x="895" y="50" name="inserted"/>
      <point x="694" y="-29"/>
      <point x="600" y="-29" type="qcurve" smooth="yes"/>
      <point x="528" y="-29" name="inserted"/>
      <point x="424" y="10"/>
      <point x="393" y="49" type="qcurve"/>
      <point x="393" y="-465" type="line"/>
      <point x="244" y="-477" type="line"/>
      <point x="244" y="1171" type="line"/>
      <point x="336" y="1171" type="line" smooth="yes"/>
      <point x="370" y="1171" name="inserted"/>
      <point x="403" y="1140"/>
      <point x="403" y="1108" type="qcurve" smooth="yes"/>
      <point x="403" y="338" type="line" smooth="yes"/>
      <point x="403" y="209"/>
      <point x="498" y="94"/>
      <point x="610" y="94" type="qcurve" smooth="yes"/>
      <point x="707" y="94" name="inserted"/>
      <point x="900" y="173"/>
      <point x="997" y="252" type="qcurve"/>
      <point x="997" y="1171" type="line"/>
      <point x="1098" y="1171" type="line" smooth="yes"/>
      <point x="1129" y="1171" name="inserted"/>
      <point x="1159" y="1140"/>
    </contour>
  </outline>
</glyph>
<glyph name="cedilla" format="1">
  <advance width="616"/>
  <unicode hex="00B8"/>
  <outline>
    <contour>
      <point x="68" y="-299" type="qcurve"/>
      <point x="174" y="-299" type="line"/>
      <point x="174" y="-340"/>
      <point x="219" y="-397"/>
      <point x="266" y="-397" type="qcurve" smooth="yes"/>
      <point x="313" y="-397"/>
      <point x="371" y="-340"/>
      <point x="371" y="-293" type="qcurve" smooth="yes"/>
      <point x="371.0" y="-252.0" name="inserted"/>
      <point x="316.5" y="-199.5"/>
      <point x="262" y="-188" type="qcurve" smooth="yes"/>
      <point x="162" y="-168" type="line"/>
      <point x="201" y="0" type="line"/>
      <point x="264" y="0" type="line"/>
      <point x="240" y="-117" type="line"/>
      <point x="352" y="-135"/>
      <point x="473" y="-213"/>
      <point x="473" y="-303" type="qcurve" smooth="yes"/>
      <point x="473" y="-391"/>
      <point x="356" y="-494"/>
      <point x="264" y="-494" type="qcurve" smooth="yes"/>
      <point x="172" y="-494"/>
      <point x="68" y="-387"/>
    </contour>
  </outline>
</glyph>
<glyph name="onehalf" format="1">
  <advance width="1690"/>
  <unicode hex="00BD"/>
  <outline>
    <contour>
      <point x="575" y="-135" type="line"/>
      <point x="449" y="-135" type="line"/>
      <point x="940" y="1628" type="line"/>
      <point x="1067" y="1628" type="line"/>
    </contour>
    <contour>
      <point x="414" y="731" type="line"/>
      <point x="281" y="731" type="line"/>
      <point x="281" y="1403" type="line"/>
      <point x="98" y="1364" type="line"/>
      <point x="88" y="1458" type="line"/>
      <point x="309" y="1524" type="line"/>
      <point x="414" y="1524" type="line"/>
    </contour>
    <contour>
      <point x="1155" y="557" type="qcurve"/>
      <point x="1030" y="557" type="line"/>
      <point x="1030" y="680"/>
      <point x="1171" y="807"/>
      <point x="1296" y="807" type="qcurve" smooth="yes"/>
      <point x="1425" y="807"/>
      <point x="1565" y="694"/>
      <point x="1565" y="584" type="qcurve" smooth="yes"/>
      <point x="1565" y="510"/>
      <point x="1475" y="385"/>
      <point x="1395" y="303" type="qcurve" smooth="yes"/>
      <point x="1192" y="98" type="line"/>
      <point x="1577" y="98" type="line"/>
      <point x="1577" y="0" type="line"/>
      <point x="1020" y="0" type="line"/>
      <point x="1020" y="92" type="line"/>
      <point x="1305" y="377" type="line" smooth="yes"/>
      <point x="1341" y="414"/>
      <point x="1391" y="467"/>
      <point x="1406.0" y="490.5" type="qcurve" smooth="yes" name="inserted"/>
      <point x="1421" y="514"/>
      <point x="1434" y="559"/>
      <point x="1434" y="584" type="qcurve" smooth="yes"/>
      <point x="1434" y="635"/>
      <point x="1364" y="707"/>
      <point x="1298" y="707" type="qcurve" smooth="yes"/>
      <point x="1233" y="707"/>
      <point x="1155" y="629"/>
    </contour>
  </outline>
</glyph>
<glyph name="threequarters" format="1">
  <advance width="1690"/>
  <unicode hex="00BE"/>
  <outline>
    <contour>
      <point x="690" y="-135" type="line"/>
      <point x="563" y="-135" type="line"/>
      <point x="1055" y="1628" type="line"/>
      <point x="1182" y="1628" type="line"/>
    </contour>
    <contour>
      <point x="340" y="1169" type="line" smooth="yes"/>
      <point x="436.0" y="1169.0" name="inserted"/>
      <point x="532.0" y="1241.0"/>
      <point x="532" y="1313" type="qcurve" smooth="yes"/>
      <point x="532" y="1370"/>
      <point x="457" y="1440"/>
      <point x="389" y="1440" type="qcurve" smooth="yes"/>
      <point x="324" y="1440"/>
      <point x="248" y="1358"/>
      <point x="248" y="1288" type="qcurve"/>
      <point x="129" y="1288" type="line"/>
      <point x="129" y="1401"/>
      <point x="270" y="1540"/>
      <point x="395" y="1540" type="qcurve" smooth="yes"/>
      <point x="520" y="1540"/>
      <point x="664" y="1425"/>
      <point x="664" y="1315" type="qcurve" smooth="yes"/>
      <point x="664" y="1255"/>
      <point x="598" y="1159"/>
      <point x="535" y="1135" type="qcurve"/>
      <point x="606" y="1114"/>
      <point x="682" y="1012"/>
      <point x="682" y="950" type="qcurve" smooth="yes"/>
      <point x="682" y="838"/>
      <point x="532" y="717"/>
      <point x="397" y="717" type="qcurve" smooth="yes"/>
      <point x="262" y="717"/>
      <point x="119" y="852"/>
      <point x="119" y="969" type="qcurve"/>
      <point x="240" y="969" type="line"/>
      <point x="240" y="899"/>
      <point x="317" y="815"/>
      <point x="391" y="815" type="qcurve" smooth="yes"/>
      <point x="467" y="815"/>
      <point x="551" y="885"/>
      <point x="551" y="948" type="qcurve" smooth="yes"/>
      <point x="551.0" y="1021.0" name="inserted"/>
      <point x="447.5" y="1094.0"/>
      <point x="344" y="1094" type="qcurve" smooth="yes"/>
      <point x="283" y="1094" type="line"/>
      <point x="283" y="1169" type="line"/>
    </contour>
    <contour>
      <point x="1489" y="258" type="line"/>
      <point x="1581" y="258" type="line"/>
      <point x="1581" y="172" type="line"/>
      <point x="1489" y="172" type="line"/>
      <point x="1489" y="0" type="line"/>
      <point x="1356" y="0" type="line"/>
      <point x="1356" y="172" type="line"/>
      <point x="954" y="172" type="line"/>
      <point x="954" y="250" type="line"/>
      <point x="1290" y="793" type="line"/>
      <point x="1489" y="793" type="line"/>
    </contour>
    <contour>
      <point x="1356" y="258" type="line"/>
      <point x="1356" y="668" type="line"/>
      <point x="1096" y="258" type="line"/>
    </contour>
  </outline>
</glyph>
<glyph name="ae" format="1">
  <advance width="1975"/>
  <unicode hex="00E6"/>
  <outline>
    <contour>
      <point x="1884" y="603" type="line"/>
      <point x="987.0" y="603.0" type="line"/>
      <point x="987.0" y="501.0"/>
      <point x="1034.0" y="283.0"/>
      <point x="1080.0" y="222.5" type="qcurve" smooth="yes" name="inserted"/>
      <point x="1126.0" y="162.0"/>
      <point x="1344" y="102"/>
      <point x="1434" y="102" type="qcurve" smooth="yes"/>
      <point x="1512" y="102" name="inserted"/>
      <point x="1678" y="151"/>
      <point x="1767" y="197" type="qcurve"/>
      <point x="1818" y="79" type="line"/>
      <point x="1715" y="30" name="inserted"/>
      <point x="1520" y="-23"/>
      <point x="1428" y="-23" type="qcurve" smooth="yes"/>
      <point x="1258" y="-23" name="inserted"/>
      <point x="942.5" y="127.0"/>
      <point x="879.0" y="283.0" type="qcurve"/>
      <point x="823.0" y="119.0"/>
      <point x="582.0" y="-29.0"/>
      <point x="430.0" y="-29.0" type="qcurve" smooth="yes"/>
      <point x="281.0" y="-29.0"/>
      <point x="85" y="212"/>
      <point x="85" y="360" type="qcurve" smooth="yes"/>
      <point x="85" y="456"/>
      <point x="208" y="639"/>
      <point x="288" y="687" type="qcurve" smooth="yes" name="inserted"/>
      <point x="368" y="735"/>
      <point x="597" y="772"/>
      <point x="780" y="780" type="qcurve" smooth="yes"/>
      <point x="825" y="782" type="line"/>
      <point x="825" y="776" type="line" smooth="yes"/>
      <point x="825" y="688"/>
      <point x="795.0" y="977.0"/>
      <point x="762.0" y="1012.0" type="qcurve" smooth="yes" name="inserted"/>
      <point x="729.0" y="1047.0"/>
      <point x="605" y="1074"/>
      <point x="533" y="1074" type="qcurve" smooth="yes"/>
      <point x="462" y="1074" name="inserted"/>
      <point x="273" y="998"/>
      <point x="186" y="949" type="qcurve"/>
      <point x="132" y="1072" type="line"/>
      <point x="238" y="1121" name="inserted"/>
      <point x="449" y="1194"/>
      <point x="544" y="1194" type="qcurve" smooth="yes"/>
      <point x="681" y="1194" name="inserted"/>
      <point x="902.0" y="1108.0"/>
      <point x="944.0" y="1016.0" type="qcurve"/>
      <point x="1009.5" y="1108.0" name="inserted"/>
      <point x="1264" y="1205"/>
      <point x="1390" y="1205" type="qcurve" smooth="yes"/>
      <point x="1501" y="1205"/>
      <point x="1721" y="1133"/>
      <point x="1781" y="1061" type="qcurve" smooth="yes" name="inserted"/>
      <point x="1840" y="988"/>
      <point x="1884" y="790"/>
      <point x="1884" y="667" type="qcurve" smooth="yes"/>
    </contour>
    <contour>
      <point x="991.0" y="739.0" type="qcurve"/>
      <point x="1722" y="739" type="line"/>
      <point x="1722" y="925"/>
      <point x="1555" y="1070"/>
      <point x="1402" y="1070" type="qcurve" smooth="yes"/>
      <point x="1324" y="1070"/>
      <point x="1122.0" y="1012.0"/>
      <point x="1082.0" y="956.5" type="qcurve" smooth="yes" name="inserted"/>
      <point x="1042.0" y="901.0"/>
      <point x="999.0" y="825.0"/>
    </contour>
    <contour>
      <point x="825" y="643" type="qcurve"/>
      <point x="537" y="643"/>
      <point x="239" y="505"/>
      <point x="239" y="358" type="qcurve" smooth="yes"/>
      <point x="239" y="266"/>
      <point x="366" y="106"/>
      <point x="466" y="106" type="qcurve" smooth="yes"/>
      <point x="542" y="106"/>
      <point x="664" y="171"/>
      <point x="712" y="227" type="qcurve" smooth="yes" name="inserted"/>
      <point x="760" y="283"/>
      <point x="825" y="528"/>
    </contour>
  </outline>
</glyph>
<glyph name="divide" format="1">
  <advance width="1196"/>
  <unicode hex="00F7"/>
  <outline>
    <contour>
      <point x="1001" y="682" type="line"/>
      <point x="195" y="682" type="line"/>
      <point x="195" y="813" type="line"/>
      <point x="1001" y="813" type="line"/>
    </contour>
    <contour>
      <point x="598" y="266" type="qcurve" smooth="yes"/>
      <point x="553" y="266"/>
      <point x="485" y="332"/>
      <point x="485" y="377" type="qcurve" smooth="yes"/>
      <point x="485" y="424"/>
      <point x="553" y="492"/>
      <point x="598" y="492" type="qcurve" smooth="yes"/>
      <point x="643" y="492"/>
      <point x="711" y="424"/>
      <point x="711" y="379" type="qcurve" smooth="yes"/>
      <point x="711" y="334"/>
      <point x="643" y="266"/>
    </contour>
    <contour>
      <point x="598" y="1004" type="qcurve" smooth="yes"/>
      <point x="553" y="1004"/>
      <point x="485" y="1069"/>
      <point x="485" y="1114" type="qcurve" smooth="yes"/>
      <point x="485" y="1161"/>
      <point x="553" y="1229"/>
      <point x="598" y="1229" type="qcurve" smooth="yes"/>
      <point x="643" y="1229"/>
      <point x="711" y="1161"/>
      <point x="711" y="1116" type="qcurve" smooth="yes"/>
      <point x="711" y="1071"/>
      <point x="643" y="1004"/>
    </contour>
  </outline>
</glyph>
<glyph name="Lslash" format="1">
  <advance width="1053"/>
  <unicode hex="0141"/>
  <outline>
    <contour>
      <point x="440" y="137" type="line"/>
      <point x="909" y="137" type="line"/>
      <point x="908" y="264" type="line"/>
      <point x="1032" y="264" type="line"/>
      <point x="1032" y="63" type="line" smooth="yes"/>
      <point x="1032.0" y="31.5" name="inserted"/>
      <point x="1001" y="0"/>
      <point x="969" y="0" type="qcurve" smooth="yes"/>
      <point x="276" y="0" type="line"/>
      <point x="276.0" y="0.0"/>
      <point x="276.0" y="686.0"/>
      <point x="276" y="686" type="qcurve"/>
      <point x="102" y="616" type="line"/>
      <point x="102" y="764" type="line"/>
      <point x="276" y="834" type="line"/>
      <point x="276" y="1372" type="line"/>
      <point x="148" y="1372" type="line"/>
      <point x="150" y="1495" type="line"/>
      <point x="440" y="1495" type="line"/>
      <point x="440.0" y="1495.0"/>
      <point x="440" y="899"/>
      <point x="440" y="899" type="qcurve"/>
      <point x="618" y="971" type="line"/>
      <point x="618" y="823" type="line"/>
      <point x="440" y="752" type="line"/>
    </contour>
  </outline>
</glyph>
<glyph name="OE" format="1">
  <advance width="1974"/>
  <unicode hex="0152"/>
  <outline>
    <contour>
      <point x="1710" y="702" type="line"/>
      <point x="1323" y="702" type="line"/>
      <point x="1317.0" y="503.5" name="inserted"/>
      <point x="1209.5" y="208.0"/>
      <point x="1108" y="111" type="qcurve"/>
      <point x="1702" y="111" type="line"/>
      <point x="1704" y="271" type="line"/>
      <point x="1825" y="271" type="line"/>
      <point x="1825" y="63" type="line" smooth="yes"/>
      <point x="1825.0" y="31.5" name="inserted"/>
      <point x="1793.0" y="0.0"/>
      <point x="1761" y="0" type="qcurve" smooth="yes"/>
      <point x="915" y="0" type="line"/>
      <point x="867.0" y="-14.5" name="inserted"/>
      <point x="771.0" y="-29.0"/>
      <point x="723" y="-29" type="qcurve" smooth="yes"/>
      <point x="584" y="-29"/>
      <point x="362" y="74"/>
      <point x="285.5" y="173.0" type="qcurve" smooth="yes" name="inserted"/>
      <point x="209" y="272"/>
      <point x="127" y="561"/>
      <point x="127" y="748" type="qcurve" smooth="yes"/>
      <point x="127" y="934"/>
      <point x="209" y="1223"/>
      <point x="285.5" y="1322.0" type="qcurve" smooth="yes" name="inserted"/>
      <point x="362" y="1421"/>
      <point x="584" y="1524"/>
      <point x="723" y="1524" type="qcurve" smooth="yes"/>
      <point x="771.0" y="1524.0" name="inserted"/>
      <point x="867.0" y="1509.5"/>
      <point x="915" y="1495" type="qcurve"/>
      <point x="1741" y="1495" type="line" smooth="yes"/>
      <point x="1772.5" y="1495.0" name="inserted"/>
      <point x="1804.0" y="1463.5"/>
      <point x="1804" y="1432" type="qcurve" smooth="yes"/>
      <point x="1804" y="1217" type="line"/>
      <point x="1683" y="1217" type="line"/>
      <point x="1681" y="1382" type="line"/>
      <point x="1108" y="1382" type="line"/>
      <point x="1205.5" y="1291.0" name="inserted"/>
      <point x="1312.0" y="1007.5"/>
      <point x="1321" y="815" type="qcurve"/>
      <point x="1710" y="815" type="line"/>
    </contour>
    <contour>
      <point x="723" y="96" type="qcurve" smooth="yes"/>
      <point x="840" y="96"/>
      <point x="1006" y="207"/>
      <point x="1058.0" y="299.0" type="qcurve" smooth="yes" name="inserted"/>
      <point x="1110" y="391"/>
      <point x="1159" y="625"/>
      <point x="1159" y="748" type="qcurve" smooth="yes"/>
      <point x="1159" y="1057"/>
      <point x="928" y="1399"/>
      <point x="723" y="1399" type="qcurve" smooth="yes"/>
      <point x="520" y="1399"/>
      <point x="289" y="1063"/>
      <point x="289" y="748" type="qcurve" smooth="yes"/>
      <point x="289" y="432"/>
      <point x="518" y="96"/>
    </contour>
  </outline>
</glyph>
<glyph name="zcaron" format="1">
  <advance width="1167"/>
  <unicode hex="017E"/>
  <outline>
    <contour>
      <point x="1040" y="344" type="line"/>
      <point x="1040" y="63" type="line" smooth="yes"/>
      <point x="1040.0" y="31.5" name="inserted"/>
      <point x="1009.5" y="0.0"/>
      <point x="979" y="0" type="qcurve" smooth="yes"/>
      <point x="127" y="0" type="line"/>
      <point x="127" y="106" type="line"/>
      <point x="823" y="1059" type="line"/>
      <point x="272" y="1059" type="line"/>
      <point x="256" y="827" type="line"/>
      <point x="156" y="827" type="line"/>
      <point x="156" y="1108" type="line" smooth="yes"/>
      <point x="156.0" y="1139.5" name="inserted"/>
      <point x="187.5" y="1171.0"/>
      <point x="219" y="1171" type="qcurve" smooth="yes"/>
      <point x="1012" y="1171" type="line"/>
      <point x="1012" y="1065" type="line"/>
      <point x="315" y="113" type="line"/>
      <point x="924" y="113" type="line"/>
      <point x="940" y="344" type="line"/>
    </contour>
    <contour>
      <point x="842" y="1679" type="line"/>
      <point x="940" y="1612" type="line"/>
      <point x="655" y="1319" type="line"/>
      <point x="569" y="1319" type="line"/>
      <point x="319" y="1612" type="line"/>
      <point x="385" y="1679" type="line"/>
      <point x="612" y="1479" type="line"/>
    </contour>
  </outline>
</glyph>
<glyph name="florin" format="1">
  <advance width="979"/>
  <unicode hex="0192"/>
  <outline>
    <contour>
      <point x="838" y="653" type="line"/>
      <point x="471" y="653" type="line"/>
      <point x="471" y="-465" type="line"/>
      <point x="307" y="-477" type="line"/>
      <point x="307" y="653" type="line"/>
      <point x="78" y="653" type="line"/>
      <point x="78" y="783" type="line"/>
      <point x="307" y="783" type="line"/>
      <point x="307" y="1032" type="line" smooth="yes"/>
      <point x="307" y="1274"/>
      <point x="502" y="1524"/>
      <point x="723" y="1524" type="qcurve" smooth="yes"/>
      <point x="792.5" y="1524.0" name="inserted"/>
      <point x="910.0" y="1497.0"/>
      <point x="958" y="1470" type="qcurve"/>
      <point x="915" y="1350" type="line"/>
      <point x="876.5" y="1374.5" name="inserted"/>
      <point x="784.5" y="1399.0"/>
      <point x="731" y="1399" type="qcurve" smooth="yes"/>
      <point x="590" y="1399"/>
      <point x="471" y="1212"/>
      <point x="471" y="1032" type="qcurve" smooth="yes"/>
      <point x="471" y="783" type="line"/>
      <point x="838" y="783" type="line"/>
    </contour>
  </outline>
</glyph>
<glyph name="quotedblright" format="1">
  <advance width="811"/>
  <unicode hex="201D"/>
  <outline>
    <contour>
      <point x="713" y="1468" type="qcurve" smooth="yes"/>
      <point x="713.0" y="1360.5" name="inserted"/>
      <point x="595.0" y="1166.0"/>
      <point x="477" y="1079" type="qcurve"/>
      <point x="430" y="1139" type="line"/>
      <point x="478.0" y="1184.0" name="inserted"/>
      <point x="526.0" y="1276.0"/>
      <point x="526" y="1323" type="qcurve" smooth="yes"/>
      <point x="526" y="1352"/>
      <point x="502" y="1432"/>
      <point x="502" y="1468" type="qcurve" smooth="yes"/>
      <point x="502" y="1509"/>
      <point x="559" y="1569"/>
      <point x="608" y="1569" type="qcurve" smooth="yes"/>
      <point x="659" y="1569"/>
      <point x="713" y="1511"/>
    </contour>
    <contour>
      <point x="381" y="1468" type="qcurve" smooth="yes"/>
      <point x="381.0" y="1360.5" name="inserted"/>
      <point x="263.0" y="1166.0"/>
      <point x="145" y="1079" type="qcurve"/>
      <point x="96" y="1139" type="line"/>
      <point x="145.5" y="1185.0" name="inserted"/>
      <point x="195.0" y="1277.0"/>
      <point x="195" y="1323" type="qcurve" smooth="yes"/>
      <point x="195" y="1352"/>
      <point x="170" y="1432"/>
      <point x="170" y="1468" type="qcurve" smooth="yes"/>
      <point x="170" y="1509"/>
      <point x="227" y="1569"/>
      <point x="276" y="1569" type="qcurve" smooth="yes"/>
      <point x="326" y="1569"/>
      <point x="381" y="1511"/>
    </contour>
  </outline>
</glyph>
<glyph name="fraction" format="1">
  <advance width="618"/>
  <unicode hex="2044"/>
  <outline>
    <contour>
      <point x="127" y="-135" type="line"/>
      <point x="0" y="-135" type="line"/>
      <point x="492" y="1628" type="line"/>
      <point x="618" y="1628" type="line"/>
    </contour>
  </outline>
</glyph>
<glyph name="uniFB01" format="1">
  <advance width="1443"/>
  <unicode hex="FB01"/>
  <outline>
    <contour>
      <point x="440" y="0" type="qcurve"/>
      <point x="135" y="0" type="line"/>
      <point x="135" y="137" type="line"/>
      <point x="279" y="137" type="line"/>
      <point x="279" y="1051" type="line"/>
      <point x="135" y="1051" type="line"/>
      <point x="135" y="1171" type="line"/>
      <point x="279" y="1171" type="line"/>
      <point x="289" y="1386"/>
      <point x="477" y="1608"/>
      <point x="680" y="1608" type="qcurve" smooth="yes"/>
      <point x="744.5" y="1608.0" name="inserted"/>
      <point x="857.0" y="1581.0"/>
      <point x="905" y="1554" type="qcurve"/>
      <point x="862" y="1434" type="line"/>
      <point x="825.0" y="1458.5" name="inserted"/>
      <point x="732.0" y="1483.0"/>
      <point x="676" y="1483" type="qcurve" smooth="yes"/>
      <point x="566.5" y="1483.0" name="inserted"/>
      <point x="448.5" y="1327.0"/>
      <point x="440" y="1171" type="qcurve"/>
      <point x="682" y="1171" type="line"/>
      <point x="682" y="1051" type="line"/>
      <point x="440" y="1051" type="line"/>
      <point x="440" y="1051"/>
      <point x="440" y="0"/>
    </contour>
    <contour>
      <point x="1143" y="1108" type="qcurve" smooth="yes"/>
      <point x="1143" y="250" type="line" smooth="yes"/>
      <point x="1143" y="194" name="inserted"/>
      <point x="1188" y="138"/>
      <point x="1233" y="138" type="qcurve"/>
      <point x="1337" y="138" type="line"/>
      <point x="1337" y="0" type="line"/>
      <point x="1165" y="0" type="line"/>
      <point x="1074" y="0" name="inserted"/>
      <point x="983" y="116"/>
      <point x="983" y="232" type="qcurve" smooth="yes"/>
      <point x="983" y="1049" type="line"/>
      <point x="860" y="1051" type="line"/>
      <point x="860" y="1171" type="line"/>
      <point x="1081" y="1171" type="line" smooth="yes"/>
      <point x="1112.0" y="1171.0" name="inserted"/>
      <point x="1143.0" y="1139.5"/>
    </contour>
    <contour>
      <point x="1065" y="1362" type="qcurve" smooth="yes"/>
      <point x="1024" y="1362"/>
      <point x="961" y="1423"/>
      <point x="961" y="1464" type="qcurve" smooth="yes"/>
      <point x="961" y="1507"/>
      <point x="1024" y="1571"/>
      <point x="1065" y="1571" type="qcurve" smooth="yes"/>
      <point x="1108" y="1571"/>
      <point x="1169" y="1507"/>
      <point x="1169" y="1464" type="qcurve" smooth="yes"/>
      <point x="1169" y="1423"/>
      <point x="1108" y="1362"/>
    </contour>
  </outline>
</glyph>
<glyph name="glyph00112" format="1">
  <advance width="725"/>
  <outline>
    <contour>
      <point x="623" y="1358" type="line"/>
      <point x="102" y="1358" type="line"/>
      <point x="102" y="1495" type="line"/>
      <point x="623" y="1495" type="line"/>
    </contour>
  </outline>
</glyph>
<glyph name="glyph00228" format="1">
  <advance width="672"/>
  <outline>
    <contour>
      <point x="594" y="796" type="line"/>
      <point x="78" y="589" type="line"/>
      <point x="78" y="731" type="line"/>
      <point x="594" y="938" type="line"/>
    </contour>
  </outline>
</glyph>
<glyph name="glyph00229" format="1">
  <advance width="721"/>
  <outline>
    <contour>
      <point x="741" y="690" type="line"/>
      <point x="35" y="690" type="line"/>
      <point x="35" y="803" type="line"/>
      <point x="741" y="803" type="line"/>
    </contour>
  </outline>
</glyph>
<glyph name="glyph00230" format="1">
  <advance width="480"/>
  <outline>
    <contour>
      <point x="218" y="-215" type="line"/>
      <point x="96" y="-215" type="line"/>
      <point x="262" y="1712" type="line"/>
      <point x="384" y="1712" type="line"/>
    </contour>
  </outline>
</glyph>
